<?xml version="1.0" encoding="UTF-8"?>
<!DOCTYPE svg PUBLIC "-//W3C//DTD SVG 1.1//EN" "http://www.w3.org/Graphics/SVG/1.1/DTD/svg11.dtd">
<!-- Creator: CorelDRAW 2019 (64-Bit Оценочная версия) -->
<svg xmlns="http://www.w3.org/2000/svg" xml:space="preserve" width="100%" height="100%" version="1.1" style="shape-rendering:geometricPrecision; text-rendering:geometricPrecision; image-rendering:optimizeQuality; fill-rule:evenodd; clip-rule:evenodd"
viewBox="0 0 21000.03 23922.79"
 xmlns:xlink="http://www.w3.org/1999/xlink">
 <defs>
  <style type="text/css">
   <![CDATA[
    .fil0 {fill:white}
   ]]>
  </style>
 </defs>
 <g id="Слой_x0020_1">
  <metadata id="CorelCorpID_0Corel-Layer"/>
  <g id="layer101">
   <path class="fil0" d="M10384.22 23913.35c-110.19,-22.08 -592.96,-272.43 -959.5,-496.83 -246.41,-150.21 -1398.18,-813.23 -3074.83,-1770.76 -424.62,-242.34 -811.26,-464.7 -861.33,-494.73 -90.15,-58.09 -310.48,-184.31 -751.13,-432.7 -132.27,-74.12 -554.92,-318.5 -941.49,-540.86 -384.6,-222.36 -827.29,-474.75 -981.51,-560.84 -154.28,-86.15 -396.63,-226.37 -540.86,-310.48 -142.26,-86.15 -490.79,-288.47 -771.24,-450.71 -953.46,-550.85 -1233.9,-723.14 -1316.04,-813.29 -24.05,-26.02 -76.09,-102.18 -114.2,-168.28l-72.09 -118.15 4.01 -5811.07c4.01,-4731.39 9.99,-5821.12 32.07,-5869.16 74.12,-166.25 278.41,-340.57 705.07,-594.94 478.76,-286.43 1925.04,-1119.76 2233.48,-1288.05 88.12,-46.06 318.5,-178.27 510.83,-290.44 414.63,-244.38 528.77,-300.49 612.94,-300.49 68.08,0 138.19,54.14 174.26,136.22 18.01,42.12 26.02,1430.24 34.04,5833.14 10.05,5606.77 12.02,5781.04 48.1,5849.12 92.13,174.26 176.3,258.44 368.57,380.59 314.49,198.31 1113.72,669.06 1716.68,1011.6 308.51,174.26 632.99,360.55 721.1,412.66 88.18,52.04 290.5,170.26 450.71,260.41 160.27,90.09 524.83,300.43 811.32,464.7 1239.89,715.12 1414.15,813.23 1624.49,931.44l222.36 124.19 268.43 0 270.4 0 408.65 -236.36c628.98,-360.55 807.25,-464.7 1121.74,-649.02 290.5,-170.26 1255.98,-725.11 1332.14,-765.19 22.01,-12.02 54.08,-32.07 70.05,-44.09 16.03,-12.02 268.43,-160.27 560.9,-328.49 534.82,-308.51 1386.15,-809.28 1880.95,-1109.77 296.42,-178.27 404.64,-284.4 490.79,-480.74l52.04 -116.18 0 -3265.07 0 -3263.1 -52.04 -104.15c-118.21,-236.42 -176.3,-288.47 -560.9,-518.84 -428.69,-254.37 -993.54,-578.91 -1620.54,-927.43 -252.39,-142.2 -540.86,-304.5 -636.99,-364.56 -98.17,-58.09 -180.31,-106.19 -182.28,-106.19 -4.01,0 -96.13,-50.07 -204.29,-112.17 -110.19,-62.1 -440.72,-248.38 -739.17,-412.66 -296.48,-166.25 -562.87,-318.5 -590.93,-336.5 -78.13,-54.08 -1109.71,-616.95 -1306.05,-711.11 -96.13,-48.1 -212.31,-92.13 -254.37,-100.14 -228.4,-38.11 -488.75,88.12 -2015.19,981.51 -360.55,210.34 -1131.73,641 -1305.99,729.12 -68.14,34.04 -150.28,62.1 -182.28,62.1 -92.19,0 -150.28,-80.1 -168.28,-226.37 -26.02,-228.34 -44.09,-4072.32 -20.04,-4254.6 40.08,-292.47 152.25,-452.74 446.7,-636.99 404.64,-256.4 2543.97,-1484.32 2870.48,-1648.6 130.24,-64.07 294.45,-78.13 438.68,-36.07 60.12,18.07 218.35,88.18 348.59,154.28 358.52,186.29 1444.24,793.19 1568.43,879.33 28.06,18.07 96.13,60.12 150.21,90.15 150.28,82.14 1466.32,833.33 1752.75,999.58 138.19,80.1 512.8,296.42 831.3,476.73 320.47,182.28 753.17,430.66 961.47,550.85 462.73,268.43 1173.84,677.08 1832.91,1053.66 270.4,154.22 645.01,370.54 831.3,480.74 188.26,110.19 458.72,266.45 600.92,348.53 1135.8,653.03 1364.14,811.32 1410.2,979.54 70.11,246.41 72.09,468.77 68.08,5857.13 -4.01,2914.57 -14,5438.49 -23.99,5610.78 -12.02,210.34 -26.08,330.52 -48.1,370.6 -98.17,186.29 -294.45,332.49 -975.53,719.13 -248.38,142.2 -612.94,350.5 -811.26,466.68 -198.31,114.2 -612.94,352.6 -921.45,528.83 -534.82,306.47 -757.18,434.67 -1302.04,751.2 -132.21,76.09 -492.76,282.42 -801.21,456.69 -308.51,174.33 -604.99,346.55 -661.04,380.59 -54.08,36.07 -258.44,152.25 -450.71,260.41 -192.33,110.19 -552.88,314.49 -801.27,458.72 -248.38,142.26 -807.25,464.76 -1241.92,713.15 -1041.64,596.91 -1169.84,673.07 -1492.34,887.35 -160.27,106.19 -536.85,302.46 -691.07,362.59 -158.23,58.09 -282.42,74.12 -392.62,52.11l0 0 -0.03 0.02z"/>
   <path class="fil0" d="M10245.97 15906.84c-126.17,-46.06 -490.73,-244.38 -991.5,-540.86 -214.35,-126.23 -614.98,-362.59 -891.42,-524.83 -711.11,-416.67 -1133.76,-683.06 -1197.89,-753.17 -30.03,-32.07 -80.1,-110.19 -110.13,-170.26l-54.08 -110.19 0 -1782.78 0 -1782.78 44.03 -96.13c78.13,-168.28 156.26,-244.38 422.65,-410.68 278.48,-176.24 1081.72,-646.98 1336.08,-785.17 88.18,-48.1 246.41,-138.25 350.56,-200.35 232.35,-140.22 751.2,-424.68 999.58,-548.87 210.34,-106.12 304.5,-124.19 472.72,-94.1 224.34,42.06 404.64,138.19 2403.74,1300.01 344.58,200.35 789.24,494.8 847.33,560.9 78.13,94.1 124.19,198.31 144.23,338.54 12.02,80.1 20.04,825.25 20.04,1816.82l0 1682.64 -80.1 130.17c-44.09,72.15 -96.2,152.25 -118.21,176.3 -54.08,64.07 -450.71,304.44 -1314.07,797.26 -406.62,232.35 -779.19,444.66 -825.25,472.72 -370.6,214.35 -809.28,452.68 -911.4,494.8 -168.28,66.04 -406.68,80.1 -546.9,30.03l0 0 -0.01 -0.02z"/>
  </g>
 </g>
</svg>
