<?xml version="1.0" encoding="UTF-8"?>
<!DOCTYPE svg PUBLIC "-//W3C//DTD SVG 1.1//EN" "http://www.w3.org/Graphics/SVG/1.1/DTD/svg11.dtd">
<!-- Creator: CorelDRAW 2019 (64-Bit Оценочная версия) -->
<svg xmlns="http://www.w3.org/2000/svg" xml:space="preserve" width="100%" height="100%" version="1.1" style="shape-rendering:geometricPrecision; text-rendering:geometricPrecision; image-rendering:optimizeQuality; fill-rule:evenodd; clip-rule:evenodd"
viewBox="0 0 7936.7 10599.84"
 xmlns:xlink="http://www.w3.org/1999/xlink">
 <defs>
  <style type="text/css">
   <![CDATA[
    .fil0 {fill:#091440}
    .fil1 {fill:#C4CBD2}
   ]]>
  </style>
 </defs>
 <g id="Слой_x0020_1">
  <metadata id="CorelCorpID_0Corel-Layer"/>
  <g id="_1154974800">
   <path class="fil0" d="M4791.07 6078.11c0.07,-246.43 -97.66,-482.84 -271.73,-657.31 -174.07,-174.46 -410.24,-272.73 -656.69,-273.23l-734.22 0 500.33 449.79 233.89 0c129.83,0 254.31,51.57 346.12,143.38 91.78,91.78 143.35,216.3 143.35,346.1 0,129.83 -51.57,254.32 -143.35,346.13 -91.81,91.78 -216.29,143.35 -346.12,143.35l-734.22 0 1000.65 873.12 661.46 0 -578.91 -506.41c171.42,-70.51 318.03,-190.39 421.19,-344.38 103.16,-153.99 158.25,-335.17 158.25,-520.54z"/>
   <path class="fil0" d="M6448.94 7451.3l0 2.38c366,-0.03 719.12,-134.99 991.85,-379.07 272.73,-244.05 445.9,-580.1 486.38,-943.85l9.53 0 0 -4133.31c-262.79,0 -514.83,104.4 -700.65,290.22 -185.81,185.82 -290.22,437.86 -290.22,700.64 0,6.09 0,12.17 0,18.26l0 828.15 -1.85 0 0 810.14c-0.4,64.64 -26.04,126.55 -71.44,172.56 -45.37,46.01 -106.94,72.47 -171.58,73.77 -64.61,1.27 -127.19,-22.76 -174.36,-66.94 -47.18,-44.16 -75.22,-105.04 -78.18,-169.6l0 -3525.56c0,-164.48 -65.36,-322.23 -181.67,-438.54 -116.28,-116.3 -274.03,-181.64 -438.52,-181.64 -164.49,0 -322.23,65.34 -438.55,181.64 -116.31,116.31 -181.63,274.06 -181.63,438.54l0 2192.86c-2.09,64.32 -29.13,125.31 -75.38,170.05 -46.22,44.74 -108.06,69.77 -172.4,69.77 -64.35,0 -126.18,-25.03 -172.43,-69.77 -46.23,-44.74 -73.24,-105.73 -75.36,-170.05l0 -2688.95c1.72,-82.51 -13.07,-164.52 -43.47,-241.24 -30.4,-76.72 -75.8,-146.6 -133.53,-205.56 -57.76,-58.95 -126.68,-105.78 -202.75,-137.75 -76.07,-31.98 -157.77,-48.45 -240.3,-48.45 -82.52,0 -164.21,16.47 -240.28,48.45 -76.07,31.97 -144.99,78.8 -202.75,137.75 -57.73,58.96 -103.14,128.84 -133.54,205.56 -30.4,76.72 -45.16,158.73 -43.47,241.24l0 2687.37c0,65.75 -26.11,128.82 -72.6,175.31 -46.51,46.49 -109.56,72.6 -175.31,72.6 -65.75,0 -128.8,-26.11 -175.32,-72.6 -46.48,-46.49 -72.6,-109.56 -72.6,-175.31l0 -1456.8 0 -1230.57c0,-164.49 -65.35,-322.23 -181.63,-438.54 -116.31,-116.31 -274.07,-181.65 -438.55,-181.65 -164.48,0 -322.23,65.34 -438.54,181.65 -116.31,116.31 -181.64,274.05 -181.64,438.54l0 2688.95c0,65.75 -26.12,128.83 -72.62,175.32 -46.49,46.48 -109.55,72.6 -175.3,72.6 -65.75,0 -128.81,-26.12 -175.3,-72.6 -46.49,-46.49 -72.61,-109.57 -72.61,-175.32l0 -1696.77c0,-164.48 -65.34,-322.22 -181.65,-438.53 -116.31,-116.31 -274.06,-181.65 -438.54,-181.65 -164.48,0 -322.23,65.34 -438.53,181.65 -116.31,116.31 -181.65,274.05 -181.65,438.53l0 8971.22 6449.21 3.44 -0.27 -3148.54zm-3141.91 1160.72c-457.89,0 -905.49,-135.78 -1286.21,-390.15 -380.71,-254.4 -677.45,-615.98 -852.67,-1038.99 -175.23,-423.05 -221.07,-888.53 -131.74,-1337.6 89.33,-449.11 309.82,-861.62 633.59,-1185.39 323.78,-323.77 736.28,-544.25 1185.38,-633.6 449.08,-89.31 914.56,-43.46 1337.59,131.76 423.02,175.21 784.6,471.94 1039,852.68 254.37,380.71 390.15,828.3 390.15,1286.19 0,614.02 -243.92,1202.87 -678.07,1637.03 -434.18,434.15 -1023.03,678.07 -1637.02,678.07z"/>
   <path class="fil1" d="M3307.03 3981.82c-457.89,0 -905.48,135.78 -1286.2,390.18 -380.71,254.37 -677.45,615.95 -852.67,1038.96 -175.23,423.04 -221.07,888.53 -131.74,1337.63 89.32,449.08 309.82,861.59 633.59,1185.36 323.77,323.77 736.28,544.27 1185.37,633.6 449.08,89.32 914.56,43.47 1337.59,-131.74 423.05,-175.23 784.6,-471.96 1039,-852.67 254.39,-380.74 390.15,-828.33 390.15,-1286.22 0.05,-304.03 -59.82,-605.1 -176.16,-885.98 -116.31,-280.91 -286.86,-536.13 -501.83,-751.13 -214.98,-214.97 -470.22,-385.5 -751.1,-501.84 -280.9,-116.33 -581.97,-176.17 -886,-176.15zm-555.63 3467.62c-246.39,-0.98 -482.33,-99.72 -655.96,-274.55 -173.64,-174.84 -270.78,-411.43 -270.07,-657.84 -0.34,-184.97 54.28,-365.89 156.92,-519.8 102.65,-153.88 248.69,-273.82 419.61,-344.59l-578.65 -505.09 661.46 0 1000.65 873.12 -733.96 0c-129.81,0 -254.31,51.57 -346.1,143.38 -91.8,91.79 -143.37,216.3 -143.37,346.1 0,129.83 51.57,254.32 143.37,346.13 91.79,91.78 216.29,143.35 346.1,143.35l233.89 0 500.6 449.79 -734.49 0zm2039.14 0l-661.46 0 -1000.65 -873.12 734.22 0c129.83,0 254.31,-51.57 346.12,-143.35 91.78,-91.81 143.35,-216.3 143.35,-346.13 0,-129.8 -51.57,-254.32 -143.35,-346.1 -91.81,-91.81 -216.29,-143.38 -346.12,-143.38l-233.89 0 -500.33 -449.79 734.22 0c215.68,0.95 424.38,76.62 590.54,214.13 166.16,137.5 279.53,328.34 320.81,540.04 41.27,211.72 7.88,431.16 -94.46,621.03 -102.34,189.86 -267.31,338.37 -466.85,420.26l577.85 506.41z"/>
   <path class="fil0" d="M2751.4 6999.65c-129.81,0 -254.3,-51.57 -346.1,-143.35 -91.8,-91.81 -143.37,-216.3 -143.37,-346.13 0,-129.8 51.57,-254.31 143.37,-346.1 91.8,-91.81 216.29,-143.38 346.1,-143.38l734.49 0 -999.06 -873.12 -661.46 0 578.91 504.03c-171.45,70.43 -318.05,190.29 -421.14,344.33 -103.1,154.01 -158.02,335.25 -157.77,520.59 -0.7,246.46 96.42,483.11 270.04,658.02 173.62,174.92 409.55,273.79 655.99,274.9l734.49 0 -500.6 -449.79 -233.89 0z"/>
  </g>
  <ellipse class="fil1" cx="3327.18" cy="6281.65" rx="2260.43" ry="2235.59"/>
  <g id="_1150298672">
   <g id="layer101">
    <path class="fil0" d="M3310.79 8166.78c-17.21,-3.45 -92.6,-42.55 -149.84,-77.59 -38.48,-23.46 -218.34,-127 -480.18,-276.53 -66.31,-37.85 -126.68,-72.57 -134.5,-77.26 -14.08,-9.07 -48.49,-28.78 -117.3,-67.57 -20.66,-11.58 -86.66,-49.74 -147.03,-84.46 -60.06,-34.73 -129.19,-74.14 -153.28,-87.59 -24.09,-13.45 -61.94,-35.35 -84.46,-48.48 -22.22,-13.46 -76.64,-45.05 -120.44,-70.39 -148.9,-86.02 -192.69,-112.93 -205.52,-127.01 -3.75,-4.06 -11.88,-15.95 -17.83,-26.27l-11.26 -18.46 0.63 -907.48c0.62,-738.87 1.56,-909.05 5,-916.55 11.58,-25.96 43.48,-53.18 110.11,-92.91 74.77,-44.73 300.62,-174.86 348.79,-201.14 13.76,-7.2 49.74,-27.84 79.77,-45.36 64.75,-38.16 82.58,-46.92 95.72,-46.92 10.63,0 21.58,8.45 27.22,21.27 2.81,6.58 4.06,223.35 5.31,910.92 1.57,875.58 1.88,902.8 7.51,913.43 14.39,27.21 27.54,40.36 57.56,59.43 49.11,30.97 173.92,104.48 268.08,157.98 48.18,27.21 98.85,56.3 112.61,64.44 13.77,8.13 45.37,26.59 70.39,40.67 25.03,14.07 81.96,46.91 126.7,72.57 193.62,111.67 220.84,126.99 253.69,145.45l34.72 19.4 41.92 0 42.23 0 63.81 -36.91c98.23,-56.31 126.07,-72.57 175.18,-101.36 45.36,-26.59 196.14,-113.23 208.03,-119.49 3.44,-1.88 8.45,-5.01 10.94,-6.89 2.5,-1.87 41.92,-25.03 87.59,-51.3 83.52,-48.17 216.47,-126.38 293.74,-173.3 46.29,-27.84 63.19,-44.42 76.64,-75.08l8.13 -18.14 0 -509.89 0 -509.58 -8.13 -16.26c-18.46,-36.92 -27.53,-45.05 -87.59,-81.02 -66.95,-39.73 -155.16,-90.41 -253.07,-144.83 -39.41,-22.21 -84.46,-47.56 -99.48,-56.94 -15.33,-9.07 -28.15,-16.58 -28.46,-16.58 -0.63,0 -15.01,-7.82 -31.9,-17.52 -17.21,-9.69 -68.83,-38.78 -115.44,-64.44 -46.29,-25.96 -87.9,-49.74 -92.28,-52.55 -12.2,-8.44 -173.29,-96.34 -203.96,-111.05 -15.01,-7.51 -33.15,-14.39 -39.72,-15.64 -35.67,-5.95 -76.32,13.77 -314.7,153.28 -56.3,32.85 -176.73,100.1 -203.95,113.86 -10.64,5.32 -23.47,9.7 -28.46,9.7 -14.4,0 -23.47,-12.51 -26.28,-35.35 -4.07,-35.66 -6.89,-635.95 -3.13,-664.42 6.26,-45.67 23.77,-70.7 69.76,-99.47 63.19,-40.04 397.27,-231.8 448.26,-257.45 20.34,-10.01 45.98,-12.2 68.51,-5.64 9.39,2.83 34.1,13.77 54.44,24.1 55.98,29.09 225.53,123.87 244.93,137.32 4.38,2.82 15.01,9.39 23.46,14.08 23.46,12.82 228.98,130.13 273.71,156.09 21.58,12.51 80.08,46.29 129.82,74.45 50.05,28.47 117.62,67.26 150.15,86.02 72.26,41.92 183.31,105.74 286.23,164.55 42.23,24.08 100.73,57.86 129.82,75.07 29.4,17.21 71.64,41.61 93.84,54.43 177.38,101.98 213.03,126.7 220.23,152.97 10.95,38.48 11.25,73.2 10.63,914.67 -0.63,455.15 -2.19,849.3 -3.75,876.21 -1.88,32.84 -4.07,51.61 -7.51,57.87 -15.33,29.09 -45.98,51.92 -152.34,112.3 -38.79,22.21 -95.72,54.74 -126.69,72.88 -30.97,17.83 -95.72,55.06 -143.9,82.58 -83.52,47.86 -118.24,67.88 -203.33,117.32 -20.65,11.88 -76.95,44.1 -125.12,71.31 -48.18,27.23 -94.48,54.12 -103.23,59.44 -8.45,5.63 -40.36,23.77 -70.39,40.66 -30.03,17.21 -86.34,49.12 -125.13,71.64 -38.78,22.22 -126.06,72.58 -193.94,111.37 -162.67,93.21 -182.69,105.11 -233.05,138.57 -25.03,16.58 -83.84,47.23 -107.92,56.62 -24.71,9.08 -44.1,11.58 -61.31,8.14l0 0 -0.01 0.01z"/>
    <path class="fil0" d="M3289.2 6916.45c-19.7,-7.2 -76.63,-38.17 -154.83,-84.47 -33.48,-19.71 -96.04,-56.62 -139.21,-81.96 -111.05,-65.07 -177.05,-106.67 -187.07,-117.61 -4.69,-5.01 -12.51,-17.21 -17.2,-26.59l-8.44 -17.21 0 -278.41 0 -278.4 6.87 -15.01c12.2,-26.28 24.4,-38.17 66.01,-64.14 43.48,-27.52 168.92,-101.03 208.64,-122.61 13.77,-7.52 38.48,-21.59 54.75,-31.29 36.28,-21.9 117.31,-66.32 156.1,-85.71 32.84,-16.58 47.55,-19.4 73.82,-14.7 35.03,6.57 63.19,21.58 375.38,203.01 53.81,31.29 123.25,77.27 132.32,87.6 12.2,14.69 19.39,30.97 22.52,52.87 1.88,12.5 3.13,128.87 3.13,283.72l0 262.76 -12.51 20.33c-6.88,11.27 -15.02,23.78 -18.46,27.53 -8.44,10.01 -70.38,47.55 -205.21,124.51 -63.5,36.28 -121.68,69.44 -128.87,73.82 -57.88,33.47 -126.38,70.69 -142.33,77.27 -26.28,10.31 -63.51,12.51 -85.41,4.69l0 0 0 0z"/>
   </g>
  </g>
 </g>
</svg>
