<?xml version="1.0" encoding="UTF-8"?>
<!DOCTYPE svg PUBLIC "-//W3C//DTD SVG 1.1//EN" "http://www.w3.org/Graphics/SVG/1.1/DTD/svg11.dtd">
<!-- Creator: CorelDRAW 2019 (64-Bit Оценочная версия) -->
<svg xmlns="http://www.w3.org/2000/svg" xml:space="preserve" width="100%" height="100%" version="1.1" style="shape-rendering:geometricPrecision; text-rendering:geometricPrecision; image-rendering:optimizeQuality; fill-rule:evenodd; clip-rule:evenodd"
viewBox="0 0 9266.77 8598.97"
 xmlns:xlink="http://www.w3.org/1999/xlink">
 <defs>
  <style type="text/css">
   <![CDATA[
    .fil0 {fill:#091440}
    .fil1 {fill:#C4CBD2}
   ]]>
  </style>
 </defs>
 <g id="Слой_x0020_1">
  <metadata id="CorelCorpID_0Corel-Layer"/>
  <path class="fil0" d="M2652.19 7606.77c0,196.24 58.2,388.07 167.21,551.23 109.04,163.17 263.98,290.33 445.3,365.45 181.29,75.09 380.78,94.72 573.24,56.46 192.46,-38.29 369.25,-132.8 508.03,-271.54 138.75,-138.78 233.26,-315.57 271.54,-508.03 38.29,-192.46 18.63,-391.95 -56.46,-573.27 -75.12,-181.29 -202.28,-336.26 -365.44,-445.27 -163.17,-109.03 -355,-167.22 -551.24,-167.22 -263.12,0 -515.51,104.54 -701.57,290.6 -186.08,186.08 -290.61,438.44 -290.61,701.59zm1322.91 0c0,65.41 -19.39,129.36 -55.72,183.75 -36.35,54.38 -88,96.76 -148.43,121.82 -60.43,25.03 -126.95,31.56 -191.08,18.81 -64.16,-12.78 -123.09,-44.26 -169.36,-90.51 -46.25,-46.25 -77.74,-105.2 -90.52,-169.34 -12.75,-64.16 -6.19,-130.65 18.84,-191.08 25.03,-60.46 67.42,-112.1 121.82,-148.43 54.37,-36.35 118.32,-55.75 183.72,-55.75 87.71,0 171.85,34.85 233.87,96.87 62.02,62.01 96.86,146.15 96.86,233.86z"/>
  <path class="fil1" d="M3644.37 7937.5c182.67,0 330.73,-148.06 330.73,-330.73 0,-182.67 -148.06,-330.73 -330.73,-330.73 -182.64,0 -330.73,148.06 -330.73,330.73 0,182.67 148.09,330.73 330.73,330.73z"/>
  <path class="fil0" d="M5959.48 7606.77c0,196.24 58.21,388.07 167.21,551.23 109.04,163.17 263.98,290.33 445.3,365.45 181.29,75.09 380.79,94.72 573.24,56.46 192.46,-38.29 369.26,-132.8 508.03,-271.54 138.75,-138.78 233.26,-315.57 271.54,-508.03 38.29,-192.46 18.63,-391.95 -56.46,-573.27 -75.11,-181.29 -202.27,-336.26 -365.44,-445.27 -163.17,-109.03 -354.99,-167.22 -551.23,-167.22 -263.13,0 -515.52,104.54 -701.57,290.6 -186.09,186.08 -290.62,438.44 -290.62,701.59zm1322.91 0c0,65.41 -19.39,129.36 -55.72,183.75 -36.35,54.38 -88,96.76 -148.43,121.82 -60.43,25.03 -126.95,31.56 -191.08,18.81 -64.16,-12.78 -123.08,-44.26 -169.36,-90.51 -46.25,-46.25 -77.73,-105.2 -90.51,-169.34 -12.76,-64.16 -6.2,-130.65 18.83,-191.08 25.03,-60.46 67.42,-112.1 121.82,-148.43 54.37,-36.35 118.32,-55.75 183.73,-55.75 87.7,0 171.84,34.85 233.86,96.87 62.02,62.01 96.86,146.15 96.86,233.86z"/>
  <path class="fil1" d="M6951.67 7937.5c182.66,0 330.72,-148.06 330.72,-330.73 0,-182.67 -148.06,-330.73 -330.72,-330.73 -182.65,0 -330.73,148.06 -330.73,330.73 0,182.67 148.08,330.73 330.73,330.73z"/>
  <path class="fil0" d="M-0 661.46l1155.17 0 835.56 5291.67 6614.58 0 661.46 -4630.21 -7345.63 0 -209.02 -1322.92 -1712.12 0 0 661.46zm6176.17 1322.92c68.29,0 136.47,5.13 204,15.34 316.33,48.94 604.73,209.41 813.09,452.42 208.36,243.01 322.95,552.52 323.03,872.61 0.58,320.44 -114.2,630.37 -323.32,873.13 -10.59,12.44 -21.44,24.61 -32.28,36.51 -133.65,144.62 -297.4,258.16 -479.69,332.58l835.29 724.96 -954.62 0 -1443.57 -1243.54 1058.34 0c189.46,0 371.15,-75.27 505.14,-209.23 133.96,-133.99 209.23,-315.68 209.23,-505.14 0,-189.47 -75.27,-371.16 -209.23,-505.15 -133.99,-133.96 -315.68,-209.23 -505.14,-209.23l-337.61 0 -721.79 -635 1059.13 -0.26zm-2941.64 0l955.68 0 1443.83 1243.54 -1058.33 0c-189.47,0 -371.16,75.27 -505.15,209.23 -133.95,133.98 -209.23,315.67 -209.23,505.14 0,189.47 75.28,371.16 209.23,505.15 133.99,133.95 315.68,209.23 505.15,209.23l337.61 0 721.78 635 -1058.34 0c-310.8,-0.16 -611.9,-108.3 -851.77,-305.94 -239.9,-197.62 -403.65,-472.47 -463.28,-777.48 -59.64,-305.04 -11.43,-621.32 136.36,-894.74 147.8,-273.42 386,-486.99 673.87,-604.18l-837.41 -724.95z"/>
  <rect class="fil0" x="2639.6" y="1620.05" width="5873.75" height="4011.09"/>
  <g id="_1158424336">
   <g id="layer101">
    <path class="fil1" d="M5347.62 5523.95c-17.21,-3.45 -92.6,-42.55 -149.84,-77.59 -38.48,-23.46 -218.34,-127 -480.18,-276.53 -66.31,-37.85 -126.68,-72.57 -134.5,-77.26 -14.08,-9.07 -48.49,-28.78 -117.3,-67.57 -20.66,-11.58 -86.66,-49.74 -147.03,-84.46 -60.06,-34.73 -129.19,-74.14 -153.28,-87.59 -24.09,-13.45 -61.94,-35.35 -84.46,-48.48 -22.22,-13.46 -76.64,-45.05 -120.44,-70.39 -148.9,-86.02 -192.69,-112.93 -205.52,-127.01 -3.75,-4.06 -11.88,-15.95 -17.83,-26.27l-11.26 -18.46 0.63 -907.48c0.62,-738.87 1.56,-909.05 5,-916.55 11.58,-25.96 43.48,-53.18 110.11,-92.91 74.77,-44.73 300.62,-174.86 348.79,-201.14 13.76,-7.2 49.74,-27.84 79.77,-45.36 64.75,-38.16 82.58,-46.92 95.72,-46.92 10.63,0 21.58,8.45 27.22,21.27 2.81,6.58 4.06,223.35 5.31,910.92 1.57,875.58 1.88,902.8 7.51,913.43 14.39,27.21 27.54,40.36 57.56,59.43 49.11,30.97 173.92,104.48 268.08,157.98 48.18,27.21 98.85,56.3 112.61,64.44 13.77,8.13 45.37,26.59 70.39,40.67 25.03,14.07 81.96,46.91 126.7,72.57 193.62,111.67 220.84,126.99 253.69,145.45l34.72 19.4 41.92 0 42.23 0 63.81 -36.91c98.23,-56.31 126.07,-72.57 175.18,-101.36 45.36,-26.59 196.14,-113.23 208.03,-119.49 3.44,-1.88 8.45,-5.01 10.94,-6.89 2.5,-1.87 41.92,-25.03 87.59,-51.3 83.52,-48.17 216.47,-126.38 293.74,-173.3 46.29,-27.84 63.19,-44.42 76.64,-75.08l8.13 -18.14 0 -509.89 0 -509.58 -8.13 -16.26c-18.46,-36.92 -27.53,-45.05 -87.59,-81.02 -66.95,-39.73 -155.16,-90.41 -253.07,-144.83 -39.41,-22.21 -84.46,-47.56 -99.48,-56.94 -15.33,-9.07 -28.15,-16.58 -28.46,-16.58 -0.63,0 -15.01,-7.82 -31.9,-17.52 -17.21,-9.69 -68.83,-38.78 -115.44,-64.44 -46.29,-25.96 -87.9,-49.74 -92.28,-52.55 -12.2,-8.44 -173.29,-96.34 -203.96,-111.05 -15.01,-7.51 -33.15,-14.39 -39.72,-15.64 -35.67,-5.95 -76.32,13.77 -314.7,153.28 -56.3,32.85 -176.73,100.1 -203.95,113.86 -10.64,5.32 -23.47,9.7 -28.46,9.7 -14.4,0 -23.47,-12.51 -26.28,-35.35 -4.07,-35.66 -6.89,-635.95 -3.13,-664.42 6.26,-45.67 23.77,-70.7 69.76,-99.47 63.19,-40.04 397.27,-231.8 448.26,-257.45 20.34,-10.01 45.98,-12.2 68.51,-5.64 9.39,2.83 34.1,13.77 54.44,24.1 55.98,29.09 225.53,123.87 244.93,137.32 4.38,2.82 15.01,9.39 23.46,14.08 23.46,12.82 228.98,130.13 273.71,156.09 21.58,12.51 80.08,46.29 129.82,74.45 50.05,28.47 117.62,67.26 150.15,86.02 72.26,41.92 183.31,105.74 286.23,164.55 42.23,24.08 100.73,57.86 129.82,75.07 29.4,17.21 71.64,41.61 93.84,54.43 177.38,101.98 213.03,126.7 220.23,152.97 10.95,38.48 11.25,73.2 10.63,914.67 -0.63,455.15 -2.19,849.3 -3.75,876.21 -1.88,32.84 -4.07,51.61 -7.51,57.87 -15.33,29.09 -45.98,51.92 -152.34,112.3 -38.79,22.21 -95.72,54.74 -126.69,72.88 -30.97,17.83 -95.72,55.06 -143.9,82.58 -83.52,47.86 -118.24,67.88 -203.33,117.32 -20.65,11.88 -76.95,44.1 -125.12,71.31 -48.18,27.23 -94.48,54.12 -103.23,59.44 -8.45,5.63 -40.36,23.77 -70.39,40.66 -30.03,17.21 -86.34,49.12 -125.13,71.64 -38.78,22.22 -126.06,72.58 -193.94,111.37 -162.67,93.21 -182.69,105.11 -233.05,138.57 -25.03,16.58 -83.84,47.23 -107.92,56.62 -24.71,9.08 -44.1,11.58 -61.31,8.14l0 0 -0.01 0.01z"/>
    <path class="fil1" d="M5326.03 4273.62c-19.7,-7.2 -76.63,-38.17 -154.83,-84.47 -33.48,-19.71 -96.04,-56.62 -139.21,-81.96 -111.05,-65.07 -177.05,-106.67 -187.07,-117.61 -4.69,-5.01 -12.51,-17.21 -17.2,-26.59l-8.44 -17.21 0 -278.41 0 -278.4 6.87 -15.01c12.2,-26.28 24.4,-38.17 66.01,-64.14 43.48,-27.52 168.92,-101.03 208.64,-122.61 13.77,-7.52 38.48,-21.59 54.75,-31.29 36.28,-21.9 117.31,-66.32 156.1,-85.71 32.84,-16.58 47.55,-19.4 73.82,-14.7 35.03,6.57 63.19,21.58 375.38,203.01 53.81,31.29 123.25,77.27 132.32,87.6 12.2,14.69 19.39,30.97 22.52,52.87 1.88,12.5 3.13,128.87 3.13,283.72l0 262.76 -12.51 20.33c-6.88,11.27 -15.02,23.78 -18.46,27.53 -8.44,10.01 -70.38,47.55 -205.21,124.51 -63.5,36.28 -121.68,69.44 -128.87,73.82 -57.88,33.47 -126.38,70.69 -142.33,77.27 -26.28,10.31 -63.51,12.51 -85.41,4.69l0 0 0 0z"/>
   </g>
  </g>
 </g>
</svg>
