<?xml version="1.0" encoding="UTF-8"?>
<!DOCTYPE svg PUBLIC "-//W3C//DTD SVG 1.1//EN" "http://www.w3.org/Graphics/SVG/1.1/DTD/svg11.dtd">
<!-- Creator: CorelDRAW 2019 (64-Bit Оценочная версия) -->
<svg xmlns="http://www.w3.org/2000/svg" xml:space="preserve" width="100%" height="100%" version="1.1" style="shape-rendering:geometricPrecision; text-rendering:geometricPrecision; image-rendering:optimizeQuality; fill-rule:evenodd; clip-rule:evenodd"
viewBox="0 0 10580.86 5793.08"
 xmlns:xlink="http://www.w3.org/1999/xlink">
 <defs>
  <style type="text/css">
   <![CDATA[
    .fil1 {fill:#091440}
    .fil0 {fill:#C4CBD2}
   ]]>
  </style>
 </defs>
 <g id="Слой_x0020_1">
  <metadata id="CorelCorpID_0Corel-Layer"/>
  <g id="_1158613936">
   <path class="fil0" d="M7249.58 5600.96l1731.95 -1518.71c12.96,-11.38 25.13,-23.02 37.04,-34.66l-438.93 385.23c-144.97,126.9 -331.21,196.61 -523.88,196.06l-6732.84 0 0 -3466.03 -1322.92 0 0 4630.19 6726.5 0c191.92,1.8 377.93,-66.51 523.08,-192.08z"/>
   <path class="fil0" d="M3985.97 1386.68c-287.97,116.94 -526.34,330.38 -674.21,603.76 -147.91,273.37 -196.14,589.67 -136.45,894.71 59.72,305 223.63,579.77 463.66,777.23 240.05,197.46 541.28,305.3 852.09,305.04l1058.33 0 -721.78 -635 -337.35 0c-189.46,0 -371.15,-75.27 -505.14,-209.23 -133.96,-133.99 -209.23,-315.67 -209.23,-505.14 0,-189.46 75.27,-371.17 209.23,-505.14 133.99,-133.97 315.68,-209.23 505.14,-209.23l1058.34 0 -1443.57 -1243.54 -955.67 0 836.61 726.54z"/>
   <path class="fil1" d="M8056.29 4628.88c192.67,0.55 378.91,-69.16 523.88,-196.06l438.93 -385.23 1293.02 -1135.33c84.45,-74.47 152.11,-166.09 198.44,-268.72 46.32,-102.64 70.3,-213.97 70.3,-326.58 0,-112.62 -23.98,-223.94 -70.3,-326.58 -46.33,-102.64 -113.99,-194.25 -198.44,-268.74l-1731.95 -1522.94c-144.76,-127.54 -330.94,-198.15 -523.88,-198.7l-6733.37 0 0 4630.2 6733.37 -1.32zm1622.15 -2642.92c65.41,0 129.36,19.4 183.75,55.74 54.38,36.34 96.76,87.99 121.79,148.43 25.03,60.43 31.59,126.93 18.84,191.08 -12.78,64.16 -44.26,123.09 -90.51,169.34 -46.25,46.26 -105.2,77.76 -169.34,90.52 -64.16,12.76 -130.67,6.19 -191.1,-18.82 -60.44,-25.04 -112.08,-67.42 -148.41,-121.81 -36.35,-54.39 -55.75,-118.34 -55.75,-183.75 0,-43.43 8.55,-86.44 25.16,-126.56 16.65,-40.13 40.99,-76.59 71.71,-107.3 30.71,-30.71 67.17,-55.07 107.29,-71.69 40.13,-16.62 83.15,-25.18 126.57,-25.18zm-3586.15 -1325.82c310.86,0.16 612.01,108.34 851.93,306.02 239.93,197.68 403.73,472.58 463.34,777.67 59.64,305.1 11.4,621.43 -136.42,894.89 -147.85,273.46 -386.11,487.06 -674.03,604.27l835.56 724.43 -955.94 0 -1443.57 -1243.53 1058.34 0c189.46,0 371.15,-75.28 505.14,-209.24 133.96,-133.97 209.23,-315.67 209.23,-505.14 0,-189.46 -75.27,-371.17 -209.23,-505.14 -133.99,-133.97 -315.68,-209.23 -505.14,-209.23l-337.35 0 -721.78 -635 1059.92 0zm-1985.7 0l1443.57 1243.54 -1058.34 0c-189.46,0 -371.15,75.26 -505.14,209.23 -133.96,133.97 -209.23,315.68 -209.23,505.14 0,189.47 75.27,371.15 209.23,505.14 133.99,133.96 315.68,209.23 505.14,209.23l337.35 0 721.78 635 -1058.33 0c-310.83,0.08 -612.01,-107.9 -851.99,-305.41 -240,-197.54 -403.86,-472.36 -463.52,-777.39 -59.69,-305.03 -11.48,-621.33 136.37,-894.74 147.82,-273.41 386.1,-486.92 674.05,-603.99l-836.61 -725.75 955.67 0z"/>
   <path class="fil0" d="M5754.95 1295.14l337.34 0c189.47,0 371.16,75.26 505.14,209.23 133.96,133.97 209.23,315.68 209.23,505.14 0,189.47 -75.27,371.17 -209.23,505.14 -133.98,133.96 -315.67,209.24 -505.14,209.24l-1058.33 0 1443.56 1243.53 955.94 0 -835.55 -723.64c287.86,-117.34 526.07,-331.02 673.84,-604.5 147.79,-273.5 196,-589.84 136.39,-894.95 -59.61,-305.11 -223.36,-580.03 -463.2,-777.79 -239.88,-197.75 -541,-306.06 -851.86,-306.4l-1058.33 0 720.2 635z"/>
  </g>
  <rect class="fil1" x="2380.01" y="388.28" width="5799.68" height="3905.25"/>
  <g id="_1158619856">
   <g id="layer101">
    <path class="fil0" d="M5056.5 4187.21c-17.21,-3.45 -92.6,-42.55 -149.84,-77.59 -38.48,-23.46 -218.34,-127 -480.18,-276.53 -66.31,-37.85 -126.68,-72.57 -134.5,-77.26 -14.08,-9.07 -48.49,-28.78 -117.3,-67.57 -20.66,-11.58 -86.66,-49.74 -147.03,-84.46 -60.06,-34.73 -129.19,-74.14 -153.28,-87.59 -24.09,-13.45 -61.94,-35.35 -84.46,-48.48 -22.22,-13.46 -76.64,-45.05 -120.44,-70.39 -148.9,-86.02 -192.69,-112.93 -205.52,-127.01 -3.75,-4.06 -11.88,-15.95 -17.83,-26.27l-11.26 -18.46 0.63 -907.48c0.62,-738.87 1.56,-909.05 5,-916.55 11.58,-25.96 43.48,-53.18 110.11,-92.91 74.77,-44.73 300.62,-174.86 348.79,-201.14 13.76,-7.2 49.74,-27.84 79.77,-45.36 64.75,-38.16 82.58,-46.92 95.72,-46.92 10.63,0 21.58,8.45 27.22,21.27 2.81,6.58 4.06,223.35 5.31,910.92 1.57,875.58 1.88,902.8 7.51,913.43 14.39,27.21 27.54,40.36 57.56,59.43 49.11,30.97 173.92,104.48 268.08,157.98 48.18,27.21 98.85,56.3 112.61,64.44 13.77,8.13 45.37,26.59 70.39,40.67 25.03,14.07 81.96,46.91 126.7,72.57 193.62,111.67 220.84,126.99 253.69,145.45l34.72 19.4 41.92 0 42.23 0 63.81 -36.91c98.23,-56.31 126.07,-72.57 175.18,-101.36 45.36,-26.59 196.14,-113.23 208.03,-119.49 3.44,-1.88 8.45,-5.01 10.94,-6.89 2.5,-1.87 41.92,-25.03 87.59,-51.3 83.52,-48.17 216.47,-126.38 293.74,-173.3 46.29,-27.84 63.19,-44.42 76.64,-75.08l8.13 -18.14 0 -509.89 0 -509.58 -8.13 -16.26c-18.46,-36.92 -27.53,-45.05 -87.59,-81.02 -66.95,-39.73 -155.16,-90.41 -253.07,-144.83 -39.41,-22.21 -84.46,-47.56 -99.48,-56.94 -15.33,-9.07 -28.15,-16.58 -28.46,-16.58 -0.63,0 -15.01,-7.82 -31.9,-17.52 -17.21,-9.69 -68.83,-38.78 -115.44,-64.44 -46.29,-25.96 -87.9,-49.74 -92.28,-52.55 -12.2,-8.44 -173.29,-96.34 -203.96,-111.05 -15.01,-7.51 -33.15,-14.39 -39.72,-15.64 -35.67,-5.95 -76.32,13.77 -314.7,153.28 -56.3,32.85 -176.73,100.1 -203.95,113.86 -10.64,5.32 -23.47,9.7 -28.46,9.7 -14.4,0 -23.47,-12.51 -26.28,-35.35 -4.07,-35.66 -6.89,-635.95 -3.13,-664.42 6.26,-45.67 23.77,-70.7 69.76,-99.47 63.19,-40.04 397.27,-231.8 448.26,-257.45 20.34,-10.01 45.98,-12.2 68.51,-5.64 9.39,2.83 34.1,13.77 54.44,24.1 55.98,29.09 225.53,123.87 244.93,137.32 4.38,2.82 15.01,9.39 23.46,14.08 23.46,12.82 228.98,130.13 273.71,156.09 21.58,12.51 80.08,46.29 129.82,74.45 50.05,28.47 117.62,67.26 150.15,86.02 72.26,41.92 183.31,105.74 286.23,164.55 42.23,24.08 100.73,57.86 129.82,75.07 29.4,17.21 71.64,41.61 93.84,54.43 177.38,101.98 213.03,126.7 220.23,152.97 10.95,38.48 11.25,73.2 10.63,914.67 -0.63,455.15 -2.19,849.3 -3.75,876.21 -1.88,32.84 -4.07,51.61 -7.51,57.87 -15.33,29.09 -45.98,51.92 -152.34,112.3 -38.79,22.21 -95.72,54.74 -126.69,72.88 -30.97,17.83 -95.72,55.06 -143.9,82.58 -83.52,47.86 -118.24,67.88 -203.33,117.32 -20.65,11.88 -76.95,44.1 -125.12,71.31 -48.18,27.23 -94.48,54.12 -103.23,59.44 -8.45,5.63 -40.36,23.77 -70.39,40.66 -30.03,17.21 -86.34,49.12 -125.13,71.64 -38.78,22.22 -126.06,72.58 -193.94,111.37 -162.67,93.21 -182.69,105.11 -233.05,138.57 -25.03,16.58 -83.84,47.23 -107.92,56.62 -24.71,9.08 -44.1,11.58 -61.31,8.14l0 0 -0.01 0.01z"/>
    <path class="fil0" d="M5034.91 2936.88c-19.7,-7.2 -76.63,-38.17 -154.83,-84.47 -33.48,-19.71 -96.04,-56.62 -139.21,-81.96 -111.05,-65.07 -177.05,-106.67 -187.07,-117.61 -4.69,-5.01 -12.51,-17.21 -17.2,-26.59l-8.44 -17.21 0 -278.41 0 -278.4 6.87 -15.01c12.2,-26.28 24.4,-38.17 66.01,-64.14 43.48,-27.52 168.92,-101.03 208.64,-122.61 13.77,-7.52 38.48,-21.59 54.75,-31.29 36.28,-21.9 117.31,-66.32 156.1,-85.71 32.84,-16.58 47.55,-19.4 73.82,-14.7 35.03,6.57 63.19,21.58 375.38,203.01 53.81,31.29 123.25,77.27 132.32,87.6 12.2,14.69 19.39,30.97 22.52,52.87 1.88,12.5 3.13,128.87 3.13,283.72l0 262.76 -12.51 20.33c-6.88,11.27 -15.02,23.78 -18.46,27.53 -8.44,10.01 -70.38,47.55 -205.21,124.51 -63.5,36.28 -121.68,69.44 -128.87,73.82 -57.88,33.47 -126.38,70.69 -142.33,77.27 -26.28,10.31 -63.51,12.51 -85.41,4.69l0 0 0 0z"/>
   </g>
  </g>
 </g>
</svg>
